<?xml version="1.0" encoding="utf-8"?>
<!-- Generator: Adobe Illustrator 25.0.0, SVG Export Plug-In . SVG Version: 6.00 Build 0)  -->
<svg version="1.1" id="Layer_1" xmlns="http://www.w3.org/2000/svg" xmlns:xlink="http://www.w3.org/1999/xlink" x="0px" y="0px"
	 viewBox="0 0 612 792" style="enable-background:new 0 0 612 792;" xml:space="preserve">
<style type="text/css">
	.st0{fill:#10B8E5;}
	.st1{fill:#FFFFFF;}
</style>
<ellipse class="st0" cx="309.9" cy="331.5" rx="284.1" ry="288.6"/>
<g>
	<g>
		<path d="M168.7,132.3c2.2-1.4,4.5-2.6,6.6-4.2c2.1-1.6,4-3.4,6.1-5.1c1.5-1.2,3-2.3,4.7-3.6c1.1,0.6,2.5,1.5,3.2,1.8
			c1.3-2.7,2-5.5,3.6-7.5c1.2-1.4,3.6-1.9,6-3c-1.4-4.7,3.8-6.1,6.9-8.2c26.3-17.5,55.2-21.3,86-17.2c29.7,4,55.1,17.9,80.2,32.7
			c6.7,3.9,13.5,7.6,20.1,11.6c11.5,6.9,23.4,13.5,34.4,21.2c12.9,8.9,23.8,20.1,34.2,31.8c9.9,11.1,16.8,23.9,22,37.6
			c4.7,12.5,9.3,25.2,12.4,38.1c2.6,11,4.6,22.4,3.4,34c-1.1,10.6-1,21.3-2.5,31.9c-1.1,7.6-3.5,15.2-6.2,22.5
			c-4.5,12-7.3,24.2-8.1,37c-0.3,4.8-1.7,9.5-2.7,14.3c-2.2,10.9-4,21.9-6.7,32.7c-1.3,5.3-4.4,10.1-6.7,15.2
			c-3.1,6.9-6.9,13.6-8.9,20.8c-1.6,6.1-1.1,12.9-1.4,19.3c-0.2,5.3-0.1,10.6-0.2,15.9c-0.1,3.4,0.8,5.7,4.2,7.7
			c9.4,5.6,18.8,11.3,26.9,18.8c1.4,1.3,3.3,2,5,3c5.9,3.3,11.9,6.5,17.8,9.8c1.1,0.6,2.1,1.7,3.2,1.7c11.5,0.5,19.4,9.3,29.8,12.7
			c10.2,3.3,19.6,8.8,29.4,13.3c7.1,3.3,14.3,6.6,21.5,9.7c4.6,2,9.4,3.8,14.1,5.5c2.8,1.1,4.5,2.8,4.5,6
			c0,66.4-0.1,132.9-0.1,199.3c0,0.3-0.1,0.6-0.4,1.6c-202.5,0-405.2,0-607.8,0c0-72.7,0-145.3,0-218c4.3-0.7,8.7-1.2,13-2.3
			c11-2.8,21.8-6.1,32.9-8.7c4.9-1.1,10.2-0.8,15.3-1.3c4-0.4,8.2-0.4,11.8-1.9c12.1-4.9,23.9-10.3,35.8-15.5c1-0.4,2-0.9,3-0.9
			c9.5,0.2,17.9-4.2,26.8-6.5c2-0.5,4.1-1.3,6-2.1c8.1-3.7,16.2-7.4,24.4-11.1c0.1,0.6,0.1,1.2,0.1,1.8c1.9,1.7,3.7,3.5,5.7,5
			c7.6,6.1,15.5,11.7,22.7,18.2c5.4,4.9,9.8,10.8,14.6,16.2c-2.9,0.9-5.4,1.7-7.7,2.5c-5.6-7-11.7-14.6-18.2-22.7
			c-0.4,5.4-0.8,10.5-1.2,15.6c-0.1-0.1-0.3-0.1-0.5-0.2c-0.7,1.7-1.9,3.3-2,4.9c-0.5,10.8-1.4,21.6-0.9,32.3
			c0.6,13.5,5.1,26.1,11.3,38c7,13.4,16.7,24.9,26.9,35.9c6.6,7.1,15.3,10.9,24.1,14c16.8,6,33.2,12.8,48.4,22.5
			c2.7,1.7,6.5,1.7,9.9,2.4c6.2,1.3,12.8,1.7,18.5,4.1c14.1,6,27.6-1.1,34.6-10.2c2.5-3.2,2.8-8.1,4.2-12.6c0.9,0,2.4-0.1,4.1-0.2
			c0.5,1.3,1,2.7,1.8,4.7c1.2-1.8,2-3.3,3.1-4.5c1-1.2,2.4-2.2,3.5-3.2c1-0.9,2.3-1.5,3-2.6c3.1-5.1,6.8-9.5,11.6-13.1
			c0.8-0.6-0.3-4.2-1-6.2c-0.3-0.9-1.8-1.5-2.4-1.9c3.3-6.2-2.7-10.6-2-16.5c1,0.6,1.9,1.2,3.8,2.3c1.6-1.7,4.2-4.4,6.7-7
			c-0.1,0-0.3-0.1-0.4-0.1c1-1.7,2.2-3.4,3.1-5.2c0.7-1.4,1.6-3,1.5-4.4c-0.3-2.5-1.6-5.1,2.2-6.2c0.3-0.1,0.3-2.9-0.4-3.7
			c-0.9-1-2.7-1.3-4.5-2.1c0-1.5,0-3.7,0-6.4c1.1,0.9,1.6,1.3,2.2,1.9c0.5-0.6,0.7-1,1-1.3c0.8-1.1,1.8-2,2.5-3.2
			c0.6-1,1.4-2.7,0.9-3.3c-0.8-1.2-2.4-2-3.8-2.6c-0.4-0.2-1.3,0.8-2.2,1.5c2.1-4.5,3.9-8.5,5.8-12.5c-0.2,0-1,0-2,0.1
			c1.5-2.8,3-5.4,4.3-8.1c0.1-0.3-1.1-1.2-1.8-2c2.3-1.2,4.3-2.4,6.5-3.6c-0.2-1.7-0.4-3.9-0.5-5.4c1.6-2,2.9-3.6,4.1-5.3
			c-0.3-0.2-0.6-0.5-0.9-0.7c-0.5,0.6-1,1.3-1.9,2.4c0.3-5.6,0.5-10.5,0.8-15.8c0.6,0.1,1.4,0.4,2.1,0.3c0.5-0.1,1.2-0.6,1.4-1.1
			c0.1-0.2-0.5-1-0.8-1.3c-1.5-1.4-3-2.7-4.5-4c0.6-0.1,1.3-0.3,1.9-0.4c1.4-3.6,2.8-7.2,4.4-11.3c-1.5-0.5-2.6-1-3.8-1.4
			c5-4.6-0.8-9.4,0.9-14c-0.4,0-0.9,0-1.3-0.1c-0.1,1.1-0.2,2.3-0.3,3.2c-3.2-3.3-4.2-12.2-1.6-15.4c-6.3-9.5-5.1-20.1,3.5-22.8
			c-0.8,1.9-1.5,3.4-2,4.7c2.2,0.4,3.4-0.7,3.3-3.4c-0.1-3.2,0.1-6.4-0.2-9.5c-0.2-2.1-1.4-4.2-1.6-6.3c-0.2-1.7,0.5-3.6,0.3-5.3
			c-0.1-1.2-0.8-3.1-1.6-3.3c-5.8-1.6-2.7-4.3-1.1-6.8c0.2-0.4,0.6-0.7,0.9-1.1c-3.6-4.2-9.4-7.4-6.4-15.2c-2.8,1.4-5.5,2.8-7.9,4
			c-0.8,5-1.4,9.7-2.2,14.8c-0.5,2.4-1.2,5.4-2,8.8c-1.5-2.3-3-4.5-4.6-6.9c-4.4,1.1-4.4,1.1-10.9-1.9c2.4-3.7,0.1-9.8-4.7-11.7
			c0.2-1.7,0.5-3.5,0.7-5.3c-0.4,0-0.9-0.1-1.3-0.1c-0.1,1.7-0.2,3.3-0.5,5c-0.3,1.7-0.8,3.4-2.3,4.9c0-3.4,0.9-7.1-0.2-10.2
			c-1.2-3.3,0.1-5.8,0.4-8.7c0.1-0.8-1.9-1.9-3.3-3.1c2.1-1.5-0.7-5.3,3.1-6.4c-0.6-0.9-1-1.9-1.8-2.7c-0.7-0.7-1.7-1.1-2.6-1.6
			c2.4-1.1,4.1-1.9,6.2-2.9c-1.1-2.2-2.1-4.1-3-6.1c0.3,0,0.6,0,0.9-0.1c-0.2-2-1.4-5.3-0.5-5.9c4-3.2-2.4-9,3.6-11.8
			c1.6-0.7,1.4-5.2,2.1-8.3c-0.9,0-2,0-3.1,0c0-0.4,0-0.8,0-1.2c1.5,0,3.1,0,4.7,0c0-4.5,0-9,0-14c-2.3,0.5-3.7,0.9-4.8,1.1
			c-0.4-2.6-0.8-5.1-1.3-8.1c1.4,0.5,2.4,0.8,3.6,1.2c-0.3-1.4-0.5-2.5-0.9-4.1c1.4,0.4,2.4,1,3.3,1c2,0,4.8,0.5,5.8-0.6
			c1.7-1.9,1.8-4.8-0.4-6.9c-1.8-1.6-4.1-2.8-5.5-4.7c-1.4-2-2-4.5-3.1-7.2c1.2-0.3,2.4-0.5,4.3-1c-1.6-0.7-2.5-1.1-2.7-1.2
			c-0.4-4.3-0.6-8.3-1.3-12.1c-0.2-1-2-2.3-3.1-2.5c-1.9-0.3-3.9,0.2-5.9,0.4c0-0.5-0.1-0.9-0.1-1.4c0.9-0.1,1.8-0.3,2.7-0.4
			c0.2-0.4,0.3-0.9,0.5-1.3c-1.6-0.6-3.3-1.2-4.9-1.9c-1-0.5-1.9-1.2-2.8-1.8c0.7-0.6,1.3-1.3,2.8-2.7c-2.7-1.1-4.9-2-6.6-2.6
			c-0.4-2-1.1-4.1-1.1-6.3c0-1.5,0.9-3.1,1.5-5.1c-1.4,0.3-3.3,0.6-5.5,1.1c-0.4-3.5-0.7-7-1.1-11c-5.1,2.3-6.6-1.1-6.1-4.3
			c0.6-4-2.2-4.1-4.2-5.6c-1.5-1.1-3.1-2.5-4-4.1c-1.6-2.8-2.6-6-4.3-8.8c-0.7-1.2-2.3-1.8-4.4-3.3c-0.2-3.3-0.5-7.8-0.9-12.9
			c-0.6,1.1-1,1.7-1.5,2.6c-0.4-1.2-1.1-2.3-0.8-2.8c2.1-3.7-1.5-6.2-2-9.3c-0.2-1.4-0.7-3.1-3.6-3.3c-2.4-0.2-4.4-3.9-6.7-5.8
			c-2.5-2.1-5-4.7-9.5-2.5c7.2,2.6,8.8,5.6,6.7,11.9c-0.9-2.7-1.5-6.4-4.9-2.2c-0.3,0.3-2.3-0.4-3.1-1c-1.3-1-2.2-2.4-3.5-3.8
			c-0.4,1.4-0.7,2.7-1.1,4.1c-4.3,0.2-4.3-3.1-4.2-5.6c0.1-3.3,2.9-2,4.9-2.1c1.3-0.1,2.6-1,3.9-1.6c-0.9-1.1-1.6-3-2.8-3.3
			c-5.5-1.5-10.9-1.7-16.4,0.3c-1.3,0.4-3-0.4-4.5-0.6c-5.9-0.9-11.9-1.9-18.4-2.9c2.5-3,9.7-0.6,7.5-7.3c1.8-0.5,3.1-0.8,4.8-1.3
			c-0.6-4.5,1-9.7-5.1-12.1c-0.9-0.4-1.3-2.2-1.8-3.5c-1.5-3.8-3.7-6.1-8.2-5.7c-5,0.4-10.1,0.6-15.1,0.9c-0.9,0-1.9-0.3-2.9-0.4
			c-0.1-0.5-0.2-1.1-0.4-1.6c7.6-2.3,15.2-4.6,22.5-6.7c-2.1-6.9-8.3-7.7-12.7-9.1c-4.6,3.2-8.8,6.3-13.9,9.8
			c0.1,4.6-6.4,3.6-9.1,7.2c4.1-0.4,8.1-0.8,12.2-1.2c0.2,0.5,0.3,1,0.5,1.5c-3.6,1.4-7.2,3.3-10.9,4.3c-3.7,1-7.5,0.8-6.9,6.6
			c0.2,2.2-1.7,4.9-3.2,6.9c-3.2,4.2-3.5,7.2-0.1,11.2c3.5,4.2,8,6.2,14.1,5.4c-0.8,1.9,4.1,4.4-1.1,5.2c-1.8,0.3-3.8-1-5.7-1.6
			c-0.3,0.4-0.5,0.7-0.8,1c1.3,0.5,2.5,0.9,3.8,1.4c-0.3,0.4-0.6,0.9-0.9,1.3c-4.2-0.1-8.8,4.4-12.5-1.4c-2.6,2.1-5.1-3.3-8.1,0.1
			c-0.6,0.7-3.7-1-5.7-1.4c-1-0.2-2-0.2-3-0.3c-0.1,0.4-0.3,0.8-0.4,1.2c-0.2-0.4-0.3-1.1-0.6-1.2c-2.2-0.8-4.7-0.3-6.8-2.4
			c-1.7-1.7-4.4-1.2-6.6,0.5c-1.6,1.3-1.9,3.8-0.1,5.1c2.7,2,5.8,3.7,8,6.3c1.7,2,3.2,4.9,3.3,7.5c0.3,7.6,0.5,15.3-5.2,21.8
			c-4,4.6-1.7,9.2,4.1,12.4c3.1,1.7,5.1,5.3,7.6,8c-0.4,0.5-0.9,1-1.3,1.5c-1.7-1-3.4-2.1-5.9-3.6c0.2,2.7,0.3,4.3,0.4,6.8
			c1.9-0.9,3-1.8,4.2-2c0.9-0.1,2.6,0.6,2.8,1.2c0.7,3.2,1,6.5,1.5,9.9c-4.5-2.2-7.3-1.1-7.6,1.9c-3.4,1.4-6.3,2.6-9.3,3.7
			c-0.6,0.2-2,0.3-2,0.2c-1.5-5.2-7.7-3.4-10.2-7.2c-4.9,3.5-9,1-13.4-1.1c0,0.7,0.1,1.6,0.1,2.6c-0.3,0.2-0.6,0.4-0.8,0.5
			c-1.3-1.8-2.6-3.5-3.9-5.3c0.9-0.4,1.9-0.8,4.3-1.7c-3.5-1.4-6-2.3-8.9-3.5c-0.5,1.6-0.9,2.6-1.3,4c-4.1-1.2-8.9,1.5-12.5-2.9
			c-0.3-0.4-2-0.2-2.7,0.3c-2.4,1.5-3.9,0.7-5.3-1.4c-2.1-3.1-4.9-3.1-7.6-0.7c-4.2,3.7-8.4,7.5-13,10.5c-2.3,1.5-5.7,1.2-8.5,1.7
			c-0.2-0.4-0.4-0.7-0.7-1.1c2.9-4.8,5.7-9.6,8.7-14.3c2.1-3.3,4.7-6.2,6.9-9.4c0.5-0.7,0.8-1.8,0.6-2.5c-1.5-5.2-3.1-10.4-4.9-15.6
			c-0.9-2.6-2.3-5.1-3.4-7.6c0.3-0.3,0.7-0.6,1.1-0.9c2.7,2.6,5.5,5.1,8.1,7.8c1.1,1.2,1.9,2.7,2.8,4.2c5.2,8.7,5.1,8.5,14.7,4.5
			c3.7-1.5,7.8-1.8,11.8-2.5c1.3-0.3,2.6-0.4,3.9-0.6c-1.2-3.9-9.7-9.1-14.7-9.1c-5.6,0-9.3-2.6-11.4-7.7c-1.4-3.5,0.5-6.7,4.2-7.1
			c3.3-0.4,6.7-0.4,9.9-1.1c8.6-1.9,19.1,6,22.2,12.9c3,6.7,2,9-5.1,11c-0.6,0.2-1.2,0.8-2.3,1.6c4.8,3.9,10.2,5.5,15.6,5.3
			c4-0.2,9.3,0.3,11.5-4.7c1-2.3,1.2-5.1,1.7-7.6c0.4-2.4,1.5-4.7-2-6.3c-1.7-0.8-2.4-3.7-3.5-5.7c-4.4-8.1-11.8-12.6-19.8-16.5
			c-1.3-0.6-2.8-1.2-4.3-1.4c-6.8-0.7-12.6-2.8-17.4-8.1c-1.4-1.5-5.1-0.7-7.7-1.4c-1.9-0.5-3.6-1.9-5.5-2.3c-2-0.4-4.2-0.1-6.8-0.1
			c0-0.4-0.1-1.2-0.2-2.2c-1.5,0-2.9,0-4.4,0c-0.2-0.4-0.4-0.8-0.6-1.2c5.2-2.6,10.4-5.5,15.8-7.8c3-1.3,4.5-2.5,4.5-6.1
			c0-3.1,1.6-6.1,2.3-9.2c0.5-1.9,0.8-3.9,1.1-5.8c1.5-9,5.5-16.5,13.7-21.1c1.1-0.6,3.9-0.1,4.2,0.6c0.8,1.9,1.6,4.7,0.7,6.1
			c-3.2,5.4-7.3,10.2-10.6,15.5c-1.9,3-3.1,6.5-4.5,9.9c-0.8,1.9-1.2,4-1.9,6.6c1,0.1,2.2,0.6,3.1,0.2c7-2.6,14.7-3.6,20.2-9.5
			c0.4-0.4,1.3-0.2,2-0.5c9.4-3.4,17.8,0,26.3,3.6c2.7,1.2,6.1,1.2,9.1,1.1c3.9-0.2,7.5-1.3,11.7,0c4.9,1.5,11.6-5.1,11.7-10.7
			c0-2.4-0.9-4.9-1.1-7.4c-0.1-1.5,0.1-3.8,1-4.4c3.3-2,2.6-4.6,1.9-7.5c2.6-0.8,7.2,0.2,4.8-4.7c14-6.7,27.2-3.5,39.7,3.7
			c7.1,4.1,11.1,11.3,15.7,17.6c-0.3,0.3-0.6,0.7-0.9,1c-3.3-2.4-6.6-4.9-9.9-7.3c-0.3,0.3-0.6,0.6-1,0.9c0.9,1.2,1.5,3.2,2.6,3.6
			c8.1,2.8,11.9,10.8,18.8,14.9c0.9,0.5,1.9,0.9,3.1,1.5c1.4-4.2,3.5-4.5,6.3-1c-0.8,1.1-1.6,2.3-2.3,3.3c1.1,2.2,2.1,4.2,3,5.8
			c2.1,1,4.1,1.9,6.6,3.1c3.9-2.4,7.7-5.9,9.4-11.3c6.5,0.9,2.4-5.4,4.5-6.4c-1-2.1-2.4-3.8-2.6-5.7c-0.9-8.1-2-9.6-10.1-11.4
			c0.2-2.2,0.4-4.4,0.5-6.7c-0.3,0.2-0.5,0.4-0.7,0.6c-1.6-2.2-3.6-4.1-4.7-6.5c-1.5-3.2-3.9-3.8-6.7-3.1c-4.7,1.3-7.1-0.7-8.3-5
			c-0.1-0.5-0.6-0.9-0.9-1.4c-0.5,0.1-1,0.3-1.5,0.4c0.7,2.8,1.4,5.6,2.2,8.6c-1,0.2-2.5,0.4-3.8,0.7c-0.7-1.4-1.4-2.6-2-3.8
			c-0.2,0.1-0.5,0.2-0.7,0.3c0.5,2,1,3.9,1.8,7.2c-4.2-3.4-7.4-6.3-10.8-8.8c-3-2.2-6.3-4.1-9.5-6.1c-0.6-0.4-1.5-0.6-1.8-1.2
			c-4.9-8.4-13.8-9.9-22-12.1c-1.9-0.5-4.4,0.7-6.4,1.6c-4.4,1.9-8.6,3.3-13.3,0.6c-1.1-0.6-2.7-0.7-3.9-0.5
			c-4.4,0.7-8.8,1.7-13.1,2.5c-3.3-5-2.3-5,1.4-8.4c8.3-7.5,19.6-7.6,28.6-12.9c2.7-1.6,4.7-4.2,8.1-4.3c0.7,0,1.4-0.3,2.1-0.2
			c2.3,0.3,4.7,0.6,6.8,0.2c1.4,0.9,2.8,1.8,4.2,2.7c0.2-0.3,0.4-0.5,0.5-0.8c-0.7-0.9-1.4-1.8-2.1-2.8c0.2-0.2,0.4-0.4,0.5-0.6
			c1.2,0.7,2.4,1.5,3.8,2.3c-0.5-4.1-0.6-3.7-4.5-4.3c-7.9-1.2-15.7-2.9-23.4-4.4c0.5-1.9,0.8-3.4,1-4.1c8.9,0,17.7,0,26.6,0
			c-2.8-5.6-7.5-4.3-11.9-3c-2.3,0.7-4.1,1.6-6-0.9c-0.4-0.6-2.3,0-3.4-0.2c-1.9-0.3-3.8-0.7-5.6-1.1c0.1-0.4,0.2-0.8,0.3-1.3
			c1.4,0.3,2.8,0.5,4.1,0.8c0.1-0.5,0.2-1.1,0.2-1.6c-2.6-0.2-5.2-0.8-7.6-0.5c-1,0.1-1.7,2.2-2.5,3.3c-2.6,1.4-5.5,3-8.3,4.6
			c0.2,0.4,0.3,0.9,0.5,1.3c3.6-0.6,7.1-1.3,11.1-1.9c-0.2,1.6-0.3,2.8-0.6,4.1c-0.2,0.7-0.7,1.8-1.1,1.8c-0.6,0.1-1.4-0.6-2.1-1
			c-0.9-0.6-1.8-1.3-2.7-1.9c-0.2,1.3-0.3,2.5-0.5,4.2c-1.1-0.6-2.3-1.4-2.6-1.5c-3.8,2.5-7.1,4.7-11.3,7.4c0-2.3,0-3.2,0-4.5
			c-0.6,0.3-1,0.5-1.3,0.7c-3.7,2-7.3,4-11.1,5.9c-0.5,0.3-1.4,0.1-2-0.1c-4.3-1-7.9,0.5-10.5,3.6
			C175.7,131.5,172.7,132.9,168.7,132.3C168.6,132.3,168.7,132.3,168.7,132.3z M483.9,318.6c0.6,0,1.1,0,1.7,0
			c0.6-3.3,0.8-6.8,1.8-10c2.2-6.9,3.5-13.9,2.8-21.1c-0.4-4.1-0.6-8.4-6.4-8.8c-0.8,0-1.8-0.6-2.3-1.3c-7.5-9.3-18.1-7.9-28-7.5
			c-3.4,0.1-6.6,2.8-9.6,4.2c-1.4-0.3-2.9-0.8-4.3-1c-3.2-0.3-6.5-0.1-9.6-0.8c-2.4-0.5-4.1-0.5-4.6,2c-1,5.2-1.8,10.5-2.6,15.7
			c0,0.3,0.2,0.8,0.3,0.8c3.2,0.5,2.3,3.6,3.4,5.4c1,1.7,2.2,3.4,3.2,4.9c3.2-2.9,5.9-5.5,8.8-8.1c3.4,5.1,5.9,9.3,8.8,13.1
			c4.3,5.7,2.4,13.5,7.7,19.3c2.6,2.9,5.3,5,8.1,7.5c3.9-4.6,4.4-9,2-13.9c-0.5-1.1-1.1-2.2-1.2-3.4c-0.3-5.6-4.6-8-8.4-10.9
			c-2.3-1.8-4.7-3.4-7-5.3c-2.2-1.8-3.9-4.2-6.3-5.6c-3.1-1.9-3.8-4.8-1.1-7.3c1.6-1.5,3-3.3,4.7-5.2c0.5,6.1,5.4,9,10,11.7
			c5,2.9,10.6,4.3,16.2,2.8c1.3-1.7,2.4-4.4,4-4.7c3.3-0.7,6.9-0.2,11.2-0.2c-0.3,3.1-0.4,6.2-0.9,9.2c-0.9,5.1-2.1,10.1-3,15.2
			C483.1,316.3,483.6,317.5,483.9,318.6z M408.3,336.9c-0.5,0.3-1.3,0.5-1.3,0.8c0,6.7-3.3,12.9-1.3,20.2
			c2.3,8.7,7.3,13.6,16.2,11.5c6.3-1.5,12.4-3.8,18.5-6.1c3.4-1.3,6.4-3.4,9.6-5.2c-0.3-0.5-0.6-1.1-1-1.6c-1.4,0.6-2.8,1.3-5,2.3
			c-1.1-2.3-2.1-4.7-3.2-7c-1-2.1-2.2-4.1-3.4-6.2c-4.8-8.5-13.2-7-22.3-7.9c1.2,4.4,2,8.1,3.4,11.6c1.3,3.3,1.8,6-2.2,8.1
			C413.6,350.6,411,344,408.3,336.9z M441.2,322.6c0.5-0.1,1-0.2,1.5-0.3c0-2.3,0.1-4.7,0-7c0-1-0.8-2.2-0.6-3.1
			c1.5-5,0.3-8.5-4.2-11c-2.6-1.5-4-0.6-3.4,2.2c0.6,2.9,1.6,5.7,2.6,8.5C438.4,315.6,439.8,319.1,441.2,322.6z M269,125.9
			c-3.7,0.9-4.5,2.6-2.4,4.4c2.8,2.4,5.9,4.5,9,6.6c2.6,1.7,5.3,3.4,8.1,4.8c1,0.5,2.4,0.3,3.7,0.5c0.1-0.3,0.1-0.7,0.2-1
			c-3.8-3.2-7.6-6.5-11.3-9.7c-0.5-1.1-1-2.5-1.6-3.7c-0.1-0.2-1.4,0-1.6,0.3c-1.7,3.3-3.8,1.8-6.1,0.8
			C267.5,128,268,127.4,269,125.9z M182.7,559.3c-3-5.1-0.9-9.5-0.5-14c0.1-1.5-1.1-3.1-1.7-4.7c-1,0.7-2.5,1.3-2.8,2.2
			c-0.7,2.9-2,6.3-1.1,8.8C177.5,554.2,176.5,559.4,182.7,559.3z M467,338.4c-1.1-1.4-1.9-2.4-3.3-4.3c-1.1,2.5-2,4.2-2.6,6
			c-0.1,0.3,1.6,1.7,1.9,1.6C464.4,340.8,465.6,339.6,467,338.4z M331.1,195.6c-1.5-3.2-2.6-5.5-3.7-7.7c-0.4,0.2-0.8,0.4-1.2,0.6
			C326.2,191.4,325.4,194.8,331.1,195.6z M261.9,109.2c-3-0.9-6-1.8-9.3-2.8C254.7,110.2,257.6,111.4,261.9,109.2z"/>
		<path d="M112,439.5c-2.6-0.8-5.2-1.5-8.6-2.5c1.7-1,2.7-1.5,3.9-2.2c-0.5-0.2-1.1-0.2-1.2-0.4c-0.5-1.1-1.5-3.1-1.1-3.4
			c1.5-1.4,3.4-3.1,5.3-3.3c6.5-0.5,12.3-2,16.6-8.4c0.1-0.4-6.9-1.9,0-3.1c0.6-0.1,0.8-2.4,1.3-3.6c0.7-1.5,1.5-2.9,2.4-4.5
			c1.4,2.1,2.4,3.6,3.7,5.5c-0.1,1.4-0.3,3.6-0.4,6.6c-1.6,0.2-3.6,0.5-5.6,0.9c3.3,2.7,11.6,0.4,12.4-3.5c-0.9,0-1.8,0.1-3.4,0.1
			c1.1-1.9,1.9-3.1,2.6-4.4c0.7-1.2,1.3-2.4,1.9-3.8c-2.5,1.1-4.5,2-6.5,2.8c-0.2-0.4-0.4-0.8-0.6-1.2c1.5-2,2.9-4.1,4.5-6
			c0.3-0.3,1.7,0.1,2.5,0.5c1,0.5,1.9,1.2,2.9,1.9c0.4-0.4,0.9-0.8,1.4-1.3c-1.7-3.3-3.5-6.6-5.2-10c-0.4,0-0.9,0.1-1.3,0.1
			c-0.6,2.3-0.8,4.8-1.9,6.8c-0.8,1.3-2.9,1.8-4.4,2.8c-3.2,2.1-6.3,4.4-10,7.1c1.2-3.4,2.3-6.7,3.6-10.2c-1.9,0.7-3.7,1.3-5.6,2
			c-0.3,1.4-0.7,3.2-1.1,5c-0.4,0-0.8,0.1-1.2,0.1c-0.5-2-0.9-4-1.3-5.4c1.9-3.1,3.6-5.9,5.7-9.3c-1.3-0.5-2.4-0.8-3.7-1.3
			c-0.1,2.8,0.5,5.8-3.5,3.4c-0.6-0.4-2.1,0.4-3,1c-2.5,1.7-4.9,3.6-8.4,6.2c1-4.6,0.8-8.5,2.6-10.8c1.5-2,5.3-2.9,8.1-2.9
			c4,0.1,6.3-1.2,7.1-5c0.5-2.3,1.5-3.2,3.8-1.9c0.7,0.4,2,0.7,2.6,0.3c3.1-1.6,4.9-1,5.8,2.6c0.3-1.4,0.5-2.7,0.7-3.8
			c5.9,2.1,11.9,4.2,17.9,6.3c-0.1-0.5-0.3-1.1-0.4-1.7c6-0.4,8.7,4.5,12.2,7.8c3.1-2.9,7.2-2.2,9.7,0.5c1.3,1.4,3.8,1.8,5.8,2.5
			c1.2,0.4,3,0.2,3.8,1c3.7,3.5,7.1,7.3,10.7,10.9c1.3,1.3,2.7,2.4,3.9,3.4c-1.2,1.8-1.9,3.7-3.3,4.9c-1.2,1.1-3.1,1.4-4.6,2.1
			c2.3,2.1,4.9,4.6,8,7.5c2.1-9.6,6.4,0.7,10.1-1.9c-1.7-2-3.3-3.9-4.6-5.5c9.9-0.9,16.5,3.3,16.1,10.7c-2.1-5.3-5.4-8.1-9.6-7.8
			c1.3,1.5,2.5,2.8,3.6,4c-3.7,6.5-3.7,6.9-0.4,8.8c-0.1,1.6-0.2,3.2-0.3,4.8c0.4,0.1,0.9,0.3,1.3,0.5c-1-4,6.4-0.4,4.2-5.9
			c-1.9,0.3-3.6,0.5-5.4,0.7c0.7-2.1,1.4-4.1,2.2-6.5c4,4.2,7.1,7.5,10.2,10.8c0.3-0.2,0.6-0.3,0.9-0.5c-0.7-2.1-1.4-4.1-2.2-6.6
			c2-1.5,4.3-4.3,7-4.9c2.4-0.5,5.4,1.3,8.1,2.1c-0.1,0.5-0.1,1-0.1,1.5c-1.3,1.1-2.6,2.1-4.1,3.4c0.7,1.2,1.4,2.3,2.3,3.7
			c-1.7,0.1-3,0.2-4.1,0.3c-0.7-1.4-1.2-2.6-2-3.6c-0.2-0.2-1.6,0.3-2.2,0.8c-0.3,0.2-0.4,1.2-0.2,1.5c1.6,2.1,3.3,4.1,5.6,6.9
			c2.4-2.7,4.8-5.5,7.6-8.6c1,0.3,3.1,0.8,5.5,1.5c-0.2,1.4-0.3,2.8-0.7,5.6c2-1.2,3.1-2,5-3.1c0.6,1.9,1.4,4.1,2.1,6.4
			c-0.4-0.1-0.8-0.3-1.2-0.4c-0.8,1.9-1.6,3.8-2.6,6.2c6.1,1.2,4.6-3.3,6.1-4.8c1.3-0.9,2.5-1.8,3.8-2.7c-0.2-0.4-0.4-0.7-0.6-1.1
			c-1.2,0.2-2.4,0.4-3.8,0.6c0.2-2.4,0.4-4.6,0.7-7.4c0.6,1.6,1.1,2.7,1.7,4.2c0.5-0.9,1.2-1.4,1.1-2c-0.1-3.2-2.3-3.8-5-3.9
			c-0.7,0-1.4,0.1-2.3,0.2c1.8-4.1,4.3-4.8,7.2-2.5c0.9,0.7,2.3,0.6,3.6,0.9c-0.2,1.5-0.5,3.3-0.7,5.1c1.9-0.7,3.9-1.4,6.3-2.3
			c0.7,3.7-4.8,5.8-0.9,9.4c0.7,0,2,0.1,3.5,0.2c-0.4,1.3-0.6,2.5-1,3.6c0.3,0.1,0.6,0.3,0.8,0.4c1.4-2.8,2.7-5.5,4.1-8.3
			c-0.3,0.1-0.5,0.1-0.8,0.2c-0.1-1.3-0.4-2.7-0.3-4c0.4-2.8,0.9-5.6,1.5-8.3c0.4-2.2,1-4.4,1.6-7.4c3.6,2.7,8,5.1,11.1,8.7
			c1.4,1.7,0.2,5.6,0.2,8.7c0.5-0.3,1.2-1,1.7-0.9c6.2,1.8,9.9-3.1,14.2-5.7c3.1-1.9,5.4-1.5,8.5,0.7c-1.9,1-3.4,1.9-4.8,2.7
			c1.3,4,3.5,7.1,7.7,7.4c0.9,0.1,1.9-2.6,2.9-4c2.1,1.7,5.7,1.1,8.2-2c3.8-4.7,3.8-4.7,6.5,1.2c-2.3,0.6-4.5,1.1-6.8,1.7
			c0.4,0.6,0.8,1.2,1.4,2.1c-1.3,0.2-2.5,0.4-3.7,0.6c-0.3,1.2-0.5,2.4-1.1,5c3.1-1.4,5.3-2.4,7.6-3.4c0.8,1,2,2.5,3.5,4.3
			c-1.1,1-2.3,2-3.4,3.1c-0.2-0.2-0.4-0.3-0.7-0.5c0.3-0.5,0.6-1.1,1.1-1.8c-2.2-0.4-4.3-0.9-6.7-1.4c1.6,1.9,3,3.6,4.4,5.3
			c-0.4,0.3-0.9,0.7-1.3,1c-0.7-0.8-1.3-1.6-2.1-2.6c-1.4,3.1-1,4.5,2.6,4.7c1.7,0.1,3.4,1.6,5.1,2.5c1.8-1.1,3.9-2.3,6.1-3.6
			c0.2,0.3,0.4,0.7,0.6,1c-0.8,2-1.5,4-2.4,6.1c2.6-0.4,4.7-0.8,6.3-1.1c1,2.7,2,5.1,2.9,7.5c-2.9,1.8-4.8,4.3-7.9,0.1
			c-2.8-3.7-2.3,1.7-4,2.2c-0.5-1-1.1-2.1-2.5-4.6c-1.6,3.8-2.7,6.5-3.7,9.1c1.9-0.2,3.6-0.4,5.4-0.6c0.1,0.4,0.1,0.9,0.2,1.3
			c-1.4,1.2-2.7,2.7-4.3,3.6c-2.4,1.4-2.2,3.3-2.3,5.6c0,0.8-2,1.9-3.1,2.1c-0.7,0.1-1.7-1-2.6-1.6c0.9-0.9,1.7-1.8,2.5-2.5
			c-0.6-1.1-2.5-2.8-2.3-4.3c0.2-1.5,2.5-2.7,4.7-4.7c-3.8,0.5-7.4,1.1-11,1.5c-1.3,0.1-3.4,0.1-3.9-0.7c-2.4-3.4-5.3-2.5-8.7-1.8
			c-0.1,1.3-0.2,2.5-0.3,4.3c-2.8,0.3-5.4,0.6-8.1,1c-0.1-0.4-0.3-0.8-0.4-1.2c5.1-1.4,8.6-4,8-9.7c1.5-0.1,2.6-0.2,5-0.4
			c-2.5-3.6-4.4-6.3-6.8-9.6c2-0.2,4.6-0.4,7.7-0.7c-0.1,1.4-0.2,2.6-0.3,3.9c1.6,1,3.2,2,4.9,3c-0.8,1.2-1.5,2.1-2.1,3
			c0.2,0.4,0.4,0.9,0.6,1.3c2.4-0.9,4.8-1.8,7.5-2.9c-0.5-1.6-0.9-3-1.1-3.9c-7.3-1.2-7.4-9.5-13.2-11.5c-0.4,0.9-1.1,2.4-1.9,4
			c-0.5,0-0.9,0-1.4,0c-0.6-2.2-1.2-4.5-1.8-6.7c-3,1.6-3.1,7.6-8.5,6.4c-1.3-4.6,2.6-6.6,5.4-9.8c-3.1-1.8-5.9-3.4-8.8-5.1
			c-0.6,2-1,3.5-1.8,6.2c1.9-1.6,3-2.6,4.2-3.6c0,2.8,0,5.6,0,8.7c-1,0.2-2.4,0.3-3.6,0.9c-0.4,0.2-0.3,1.7-0.2,2.5
			c0.1,2.1,2.4,5.1-2.3,4.9l0.1,0.1c-0.1-1.9,0-4-3.1-2.8c-0.6,0.2-1.7-0.6-2.5-1.1c-1.3-1-2.5-2.1-3.7-3.2c-3.6,4.3,1.6,5,1.9,7.4
			c0.4,0.5,0.8,1,1.2,1.5c-1.9,4-5,0.1-7.7,1.3c0.4,1.6,0.8,3.3,1.6,6.4c-3.7-1.6-6.5-2.8-9.7-4.2c-2.1,1.6-8.1,1.6-8.7,0.2
			c-5.1,0-9.8,0-14.7,0c0.1-1.9,0.2-3.3,0.4-5.1c1.7,0.8,3.1,1.4,4.8,2.2c-2.7-4-6.2-4.6-13.7-2.6c1.6,1.8,2.9,3.3,4.3,4.7
			c0.4-0.3,0.8-0.5,1.2-0.8c0.1,1.3,0.2,2.6,0.3,3.7c3.1,0.5,5.9,1,8.7,1.5c0,0.5-0.1,1-0.1,1.5c-2.6,0-5.2,0-8,0
			c-0.1,0.5-0.4,1.3-0.8,2.6c-2.7-2.1-5.2-4.1-8.1-6.4c-1.2,3.1-2.2,5.9-3.3,8.7c-1.5,0.4-3.1,0.9-5.1,1.5c0.3-0.7,0.4-1.4,0.8-1.9
			c0.9-1.2,5.3-1.2,1.3-4c-0.1-0.1,0.8-1.8,1.4-2.7c2-3.3,1.1-5.1-2.8-5.7c-1.2-0.2-2.5,0.1-3.6-0.1c-1.1-0.2-2.1-0.9-3.7-1.7
			c0,1.8,0,3,0,4.8c-1.4-0.5-3.3-0.5-4-1.4c-3.1-4-7-2.5-10.7-1.8c-3.5,0.6-7.2,2.3-9-2.5c-2.3,1.9-4.3,3.6-6.4,5.2
			c-0.6,0.4-1.8,0.5-2.4,0.2c-0.4-0.2-0.6-1.4-0.6-2.1c-0.2-1.6-0.3-3.2-0.4-5.2c-2.7,1.3-5.4,1.7-3.9,5.5c0.3,0.7-1.6,3-2.7,3.1
			c-3.9,0.4-7.8,0.1-11.8,0.1c-0.4,2.8,0.4,6.6-3.8,5c-4.7-1.8-5.8,0-5.2,4.3c-1.5,0-2.7,0-4,0c0-1.2,0-2.5,0-4.4
			c-4.5,1.4-5.8,10.6-12.5,4.4c-0.5,1-1.1,2.2-1.7,3.3c0.4-0.1,0.9-0.2,1.4-0.4c1.5,3.5,2.8,7.3,4.7,10.6c1.6,2.7,3.9,5,5.3,8.3
			c-1.9-1.6-4.6-2.9-5.7-4.9c-3.9-7.5-10.9-11.9-16.8-17.3c-6.6-6-14.4-10.1-23.5-11.2c-1.4-0.2-2.5-2.3-3.7-3.6
			c1.4-0.9,2.7-2,4.1-2.5c1.3-0.5,2.8-0.5,4.3-1.7c-4-2.3-8-4.6-12.7-7.4c-0.1,0.4-0.4,1.2-0.9,2.4c0.4,0.3,1.4,0.9,3.6,2.3
			c-2.9,0.7-4.7,1.1-7.5,1.8c4.2-6.5-1.6-4.5-4.1-6.9c4-1.3,7.4-2.6,10.8-3.5c0.7-0.2,1.7,0.8,2.6,1.1c1.7,0.6,3.4,1.7,5.1,1.6
			c3.3-0.3,5,0.5,4.4,4.5c-1.3-0.2-2.5-0.4-3.7-0.6c-0.2,0.4-0.5,0.7-0.7,1.1c2.9,1.3,5.9,2.7,9.3,4.2c-4.6,3.4-4.6,3.8-1.3,7.4
			c4.3-3.1,7-2.6,11.4,2.1c2.7,2.9,6.3,2.9,8.7-0.1c1.7-2.1,3.2-4.4,4.8-6.7c-0.4-0.2-0.7-0.4-1-0.7c-1.6,0.3-3.2,0.6-5.2,1
			c1.3-1.7,2.1-2.8,2.9-3.9c2.4-1.8,4.9-3.5,7.3-5.3c0-0.5-0.1-1-0.1-1.4c-5.1,2.6-10,2.9-14.4-1.1c-0.2,0.5-0.4,1.1-0.6,1.6
			c2.7,2.1,5.3,4.2,8,6.3c-1.6-0.7-3.2-1.5-4.8-2c-3.4-1-6.8-1.9-9.7-2.7c-0.9-5.8-7.4-2.9-9.2-7c2,0.8,3.9,1.5,5.7,2.2
			c3-1,6-1.9,9-2.8C117.8,443.5,113.6,444.1,112,439.5c2.8,0.2,5.7,0.4,7.7,0.5c2-1.7,3.3-2.9,4.8-4.1c-0.1-0.3-0.2-0.5-0.3-0.8
			c-2.2,0.7-4.5,1.3-6.5,1.9c-0.4-1.6-0.7-3-1-4.4c-2.1,2.1-4.6,3.5-3.3,6.4C112.8,439.1,112.4,439.3,112,439.5z M152.2,447.1
			c0-2.2,0.4-3.9-0.1-4.3c-0.9-0.6-2.6-0.8-3.5-0.3c-4.2,2.1-8.3,4.6-12.4,6.9c0.2,0.4,0.5,0.9,0.7,1.3c3.2-1.6,6.5-3.3,9.7-4.9
			c0.6,1.5,1,2.6,1.4,3.8c-1.3,5.4-5-0.5-7.5,2.2c3.8,1.1,7.3,2,11.6,3.2c0.6-1.6,1.4-3.6,2.2-5.7c0.2,0.4,0.3,0.7,0.5,1.1
			c1.9-1,3.7-2.2,5.6-2.9c1.7-0.6,3.6-0.9,5.4-0.8c1,0.1,2,1.2,3,1.9c1-1.6,2.1-3.1,3.1-4.7c0.7-1.1,1.2-2.6,2.3-3.4
			c2.8-2.1,5.5-10.7,4.1-14.1c-0.8,1.3-1.6,2.4-2.1,3.2c-1.4-1.2-2.7-2.3-4.1-3.4c0.3,0,0.7-0.1,1-0.1c-0.7-3.7-1.5-7.4-2.2-11
			c-0.6,0.1-1.2,0.2-1.8,0.3c0.1,2.5,0.3,5,0.4,7.5c-2.1,3.7-3.8,7.9-5.4,12c-0.1,0.3,0.2,0.9,0.4,1.2c2,3.5-0.5,4.3-3,5.5
			c-2.4,1.2-4.6,2.9-6.9,4.4C153.7,446.5,152.9,446.8,152.2,447.1z M122.6,392.4c1.9,1.6,3.2,2.6,4.4,3.7c-0.6,1-1.1,1.6-1.6,2.4
			c1.6,0,3,0,4.4,0c-0.3-1-0.6-1.8-0.9-2.8c1.4,0.4,2.4,0.7,4.3,1.2c-1.2-4.1-2.2-7.6-3.6-12.2C126.9,387.6,125,389.8,122.6,392.4z
			 M141.9,435.5c3.8-1.7,6.4-2.8,10.1-4.5c-2.9-0.3-4.7-0.5-6.4-0.6c-0.2-0.3-0.4-0.6-0.6-1c3.6-2.7,7.2-5.4,10.8-8.1
			c-0.4-0.5-0.7-1.1-1.1-1.6c-3.5,2-7.1,4-11,6.2C143.3,428.5,142.6,431.6,141.9,435.5z M126,439.4c4.7,0.6,5.3,0.3,7.4-3.6
			c0.6-1.1,1.7-2,2.7-2.6c1.6-1,3.4-1.8,5.1-2.7c-0.1-0.2-0.2-0.5-0.3-0.7c-1.6,0.5-3.3,0.9-5.1,1.4c0.1-1,0.1-1.6,0.1-2.5
			c-3.1,2.1-5.7,4-8.9,6.2c2.1,0,3.3,0,4.6,0c0.1,0.3,0.3,0.7,0.5,1C130,437.2,127.9,438.3,126,439.4z M272.9,459.9
			c-5.8-2.9-7.4-2.3-13.2,4.9C263.8,463.3,267.9,461.8,272.9,459.9z M184.9,430.6c5.4-2.2,1.5-5.3,1.6-9c-1.9,2.2-3.1,3.7-4.3,5.2
			C183,428.1,183.9,429.3,184.9,430.6z M320.7,461.7c0.8-2.7,1.4-4.7,2-6.9c-0.9-0.9-2.1-2-3.4-3.2c-0.3,4-0.5,7-0.7,10.1
			C319.7,461.7,320.7,461.7,320.7,461.7z M138.1,426.3c-4.3-2.1-7.3-0.9-9.8,4.2C131.4,429.1,134.5,427.8,138.1,426.3z M251.6,450.3
			c-2.1-2.2-3.3-3.5-4.8-5.1c-0.8,1.9-1.6,3.6-3,6.8C246.7,451.3,248.7,450.9,251.6,450.3z M256.5,462.3c-0.3-1.1-0.2-2.6-0.9-3.2
			c-0.9-0.9-3-1.8-3.6-1.4c-1.2,0.9-1.8,2.6-2.7,4c1,0.1,2.1,0.1,3.1,0.2C253.7,462,255,462.1,256.5,462.3z M153,396.9
			c4,1.3,8,2.6,11.9,3.9C162.3,396.7,156.1,394.8,153,396.9z M241.4,453.7c1.9,2.2,3.1,3.8,4.4,5.3c0.5-0.3,1-0.5,1.5-0.7
			c-0.5-1.7-0.8-3.5-1.7-4.9C245.2,452.8,243.2,453.5,241.4,453.7z"/>
		<path d="M84.2,348.6c0.5-1.2,1.2-2.3,1.5-3.5c1.3-5.5,2.6-11,3.9-16.4c0.2-1,0.8-1.8,0.9-2.8c0.2-1.2,0.1-2.5,0.3-3.8
			c0.7-2.9,1.3-5.8,2.6-8.4c0.3-0.6,3.4-0.1,5.1,0.3c0.9,0.2,2.3,1.4,2.3,2.1c0,0.9-1.3,1.7-2.3,3c-0.3-1.9-0.5-2.9-0.7-3.9
			c-0.4,0-0.9-0.1-0.9,0c-0.4,0.8-1.2,2.2-1,2.4c1.4,1.3,3.1,2.3,4.6,3.6c1.1,1,2,2.1,3,3.2c-0.3,0.5-0.5,1-0.8,1.4
			c5.9-0.7,11.9-0.9,17.6-2.2c8.8-2,17.4-1.1,26.1,0.4c4.8,0.8,9.7,1.4,14.4,2.5c1.8,0.4,3.2,2.1,4.9,3.1c4.8,2.9,9.8,5.5,14.5,8.6
			c1.4,0.9,2.1,2.8,3.1,4.2c1.1-0.2,2.8-0.5,4.5-0.8c0.1,0.4,0.2,0.7,0.3,1.1c-1.1,0.5-2.1,1-3.5,1.7c1.6,0.2,2.8,0.4,4.2,0.6
			c-1.8,1-3.1,2.2-4.7,2.6c-1.6,0.4-4.4,0.6-5-0.3c-1.9-2.9-4.6-3-7.4-3.5c-7.7-1.4-15.4-3.4-23.2-4.2c-6.2-0.6-12.6,0-18.8,0.6
			c-4.9,0.4-7-0.5-7.6-4.9c-1.5-1.6-7.1,2-5-4.3c-2.7,1.3-4.9,2.5-7.1,3.6c-0.2,0.4-0.3,0.8-0.5,1.3c2.3,0.9,4.7,1.8,7.6,2.9
			c-3.5,0.8-6.8,2.2-10,2.1c-6.6-0.1-11.5,3.6-16.9,6.3c-1.7,0.8-3.4,1.5-5.1,2.3C84.7,349.2,84.4,348.9,84.2,348.6z"/>
		<path d="M87.1,374.8c0.3,2.2,0.5,3.8,0.8,5.5c-1.7-0.7-3.6-1.2-5.1-2.2c-1.5-1-2.7-2.5-3.4-3.1c-0.2-2.4,0.1-4.7-0.6-6.7
			c-1.7-4.7-0.9-10.4,2.8-12.8c1.2-0.8,3.3-0.1,4.9-0.6c1.9-0.6,3.5-2,5.3-2.8c1.9-0.9,4-1.4,6.4-2.2c0,1.4,0,2.2,0,3.2
			c3.9-1.7,7.6-3.3,12.1-5.3c-1.8,4-3,6.8-4.3,9.9c1.6,0,2.9,0,4.2,0c1.3-8,7.4-8.7,13.9-8.4c2.1,0.1,4.3-0.8,6.3-0.4
			c1.7,0.3,3.6,1.3,4.7,2.6c1.7,2,2.7,4.5,4.3,7.4c-2.3,0.8-5.6,2.9-9,3c-5.8,0.2-9.7,4.4-14.9,5.4c-0.7,0.1-1.6,0.7-2.1,0.5
			c-3.8-1.9-7.2-0.5-10.6,1c-2.8,1.2-5.7,2.3-8.6,3.4C91.6,373.1,88.9,374.1,87.1,374.8z"/>
		<path d="M110.9,389.8c-1.2-0.1-2.9-0.4-4.8-0.6c-0.1,3.6-1.9,5.1-6,4.6c-3.3-0.3-6.8,0.6-10.6,0.3c5.2-4,10.1-8.3,15.5-12
			c6.2-4.3,15.2-4.7,25.2-1.8c-3.4,0.4-5.8,5.2-8.9,0.3C119.3,385,112.8,384.1,110.9,389.8z"/>
		<path d="M92.8,412.5c-3.5-0.2-4.4,8.6-10.8,4.4c0.8-0.7,1.5-1.3,2.4-2.1c-4.3-0.3-8.1-0.5-11.9-0.8c0-0.4,0-0.8,0-1.3
			c2,0,3.9,0.1,5.9,0c3-0.2,6.3,1.2,7.9-3.7c1-3.3,4.3-6,7-8.4c1.2-1,3.5-0.8,5.6-1.1C96.8,404,95,407.9,92.8,412.5z"/>
		<path d="M308.6,416.6c2.1,1.5,4.1,3,6.5,4.7c0.3-3.9,2.9-3.3,5.3-2.3c2.4,0.9,4,2.1,1.5,5c-0.7,0.8,0.3,3.1,0.5,4.9
			c1.3,0.3,2.6,0.7,4.3,1.2c-2.3,1.4-2.3,1.4-9.1-3.7c-0.9,1.9-1.8,3.7-2.5,5.1c-2.8-3.5-5-6.3-7.2-9c0.3,0,1.3,0.1,2.8,0.2
			c-0.7-2.2-1.4-4.2-2-6.2L308.6,416.6z"/>
		<path d="M329,498.1c1.7-2.5,3.5-5.1,5.5-8.2c4.8,0,6.9,2.7,2.5,9.6c6.2-0.6,6.2-0.6,4.6,8.8C337.4,505,333.3,501.6,329,498.1z"/>
		<path d="M306.9,500.1c-0.4-1.7-0.4-3.6-1.3-5.1c-1.6-2.8-2.2-4.9,0.5-7.6c2.8-2.9,5.4-3.1,9.4-0.9c-1.9,1.6-3.4,2.9-5.4,4.5
			c1,1.6,2.4,3.4,3.5,5.4c0.5,0.8,0.7,2.2,0.4,2.9c-0.3,0.6-1.7,0.9-2.6,0.9c-1.5,0.1-3-0.2-4.5-0.3L306.9,500.1z"/>
		<path d="M111.7,425c-2.5-0.2-3.9-0.3-4.1-0.4c0.5-3,1.7-6,1.3-8.8c-0.5-3.4,0.5-5.5,3.3-7.2c1.4,1,2.7,2,4.2,3.1
			C114.9,416.1,113.3,420.6,111.7,425z"/>
		<path d="M171.9,139c-0.7,0.8-1.2,1.7-2,2.3c-2,1.5-4,3-6.2,4.3c-0.7,0.4-1.9,0.2-2,0.2c-0.8,2.2-1.5,4.1-2.4,6.5
			c-3.9-4.9-1.3-8.8,6.9-11.9c-0.7-0.8-1.3-1.6-1.8-2.2c1.4-2,2.9-3.9,4.3-5.8c0,0-0.1-0.1-0.1-0.1c1.2,0.5,2.3,1,3.2,1.4
			c-0.9,1.4-1.9,2.9-2.7,4.1c0.5,0.3,1.7,0.8,2.9,1.4L171.9,139z"/>
		<path d="M306.8,500c-1.6,2.4-8.8,4.2-11.1,2.6c-1.4-1-2.6-2.3-3.9-3.5c1.4-0.7,2.6-1.4,3.7-2c-0.2-0.3-0.4-0.5-0.6-0.8
			c1.9-1,3.7-1.9,5.6-2.9c-0.1-0.4-0.1-0.8-0.2-1.2c1,0.5,2,1,3.3,1.7c-1,1.2-1.7,2.3-2.8,3.6c2.2,0.9,4.1,1.8,6.1,2.6
			C306.9,500.1,306.8,500,306.8,500z"/>
		<path d="M354.1,423.8c-1.4,1.9-2.8,3.6-4.3,5.6c-1-1.1-1.7-1.9-3-3.4c0,2,0,3.5,0,4.9c-1.8,0-3.8,0-6.8,0c0.1-1.7-0.4-4.3,0.6-5.9
			c0.7-1,3.7-0.5,5.6-0.6C348.7,424.3,351.2,424.1,354.1,423.8z"/>
		<path d="M190.5,312.8c3,1.3,6,2.5,9.8,4.1c-1.9,0.4-2.9,0.7-3.9,0.9c-0.5,0.6-0.9,1.1-1.4,1.7c1.6,1.5,3.1,3.1,4.5,4.4
			c-2,1.5-2,1.5-4.8-1.9C190.1,316.7,190.1,316.7,190.5,312.8z"/>
		<path d="M346.9,451.8c-3.2-0.5-6.4-1-9.9-1.5c-0.2-0.7-0.7-2.2-1.2-3.6c2.1-0.5,4.1-1,6.5-1.6c1.8,1.6,3.9,3.4,5.9,5.2
			C347.8,450.7,347.4,451.3,346.9,451.8z"/>
		<path d="M71.2,440.9c2.1-1,4.1-1.7,5.8-2.8c1.7-1,3.8,4.7,5-0.4c1.6,0.5,3.3,1,5.1,1.4c0.1,0.3,0.2,0.6,0.3,0.8
			c-2.4,0.6-4.9,1.2-7.3,2c-0.8,0.3-1.3,1.2-2,1.6c-0.6,0.4-1.7,0.9-2.1,0.7C74.1,443.3,72.5,442,71.2,440.9z"/>
		<path d="M172,139.2c0.3-2.8,0.5-5.2,4.6-5.1c1.9,0,3.8-2.4,6.2-4c0.6,0.3,1.8,0.8,2.4,1c-2.3,2-4.5,4.3-7.1,6
			c-1.8,1.1-4.1,1.3-6.2,1.9C171.9,139,172,139.2,172,139.2z"/>
		<path d="M350.8,480.8c-0.4-3.7-0.7-7-1.1-11c2.2,1.9,4.1,3.2,5.6,4.8c2.1,2.1,3.2,4.1-1,5.1C353.2,479.8,352.1,480.3,350.8,480.8z
			"/>
		<path d="M308.7,416.5c-1.5,2-2.9,3.9-4.6,6.2c-2.7-5.1-0.9-8.6,5-9.9c-0.2,1.5-0.4,2.7-0.5,3.9
			C308.6,416.6,308.7,416.5,308.7,416.5z"/>
		<path d="M289.5,510.3c-2.6,3-2.7,8-8,7.7C281.4,512.6,285,508.7,289.5,510.3z"/>
		<path d="M267.8,423c-2.2,0.9-4.3,1.8-6.8,2.8c1.7,1.7,2.8,2.7,3.9,3.7c-0.3,0.4-0.6,0.7-0.9,1.1c-1.4-1-3.9-1.9-4.1-3.2
			c-0.3-1.8,0.5-4.5,1.8-5.6c1.3-1.1,3.8-0.6,5.8-0.8C267.7,421.7,267.8,422.4,267.8,423z"/>
		<path d="M313.1,522.7c-3.7,5.7-9,6.3-13.4,1.6C304.4,526,308.8,524.9,313.1,522.7z"/>
		<path d="M278.9,531.9c-3.9-0.5-6.5-0.8-9.6-1.2c0.2-1.5,0.4-3,0.9-6.1C272.3,529,277.6,526.8,278.9,531.9z"/>
		<path d="M277.5,404.2c-0.1,2.3-0.2,4.1-0.3,6.2c-1.7-0.3-4.4,2.8-5.1-1.5C271.5,404.8,274.4,404.7,277.5,404.2z"/>
		<path d="M293.2,459.6c0.4,1.4,0.8,2.8,1.2,4c2.3,0.2,4.5,0.3,6.6,0.5c-3.2,3.1-6.4,2.5-9,0.3c-0.9-0.8-0.7-2.9-0.9-4.5
			C291.9,459.8,292.5,459.7,293.2,459.6z"/>
		<path d="M92.1,424.2c-4.7,1.6-9.2,3.2-13.7,4.7c-0.2-0.5-0.3-1-0.5-1.4C82.6,426.2,85.8,421,92.1,424.2z"/>
		<path d="M288.2,419.2c2.3-0.9,5.2-1.6,6.3,1.5c1.3,3.8-0.4,5.4-4,2.9C289.4,422.8,289,420.8,288.2,419.2z"/>
		<path d="M121.2,413.3c2.5,6.4,0.8,8.8-5.1,7.8c0.6-1.4,1.2-2.7,2.4-5.3c0.6,1.5,1,2.4,1.8,4.2C120.7,417,121,415.1,121.2,413.3z"
			/>
		<path d="M91.2,420c2.8-1.4,4.7-2.4,6.6-3.3c0.3,0.3,0.7,0.6,1,0.9c-0.4,1.9-0.9,3.7-1.4,5.8C95.4,422.3,94,421.5,91.2,420z"/>
		<path d="M340.7,481.5c-1-0.5-2-1-3-1.4c3.1-2.3,5.6-0.2,3.8,3.4c-0.4,0.9-1.9,1.6-3,1.6c-1.3,0.1-2.6-0.6-4-1.8c2-0.3,4-0.6,5.9-1
			C340.5,482.1,340.6,481.8,340.7,481.5z"/>
		<path d="M285.9,475.6c-3.1-0.8-6.2-1.6-9.4-2.4c-0.1-0.5-0.2-0.9-0.2-1.4c1.9-0.3,3.9-1.1,5.5-0.7c1.4,0.4,2.5,2.2,3.7,3.4
			C285.7,474.8,285.8,475.2,285.9,475.6z"/>
		<path d="M179.7,352.3c2.4-0.3,4.8-0.5,7.2-0.8c-0.5,3.8-2.1,4.3-7.1,2.2C179.8,353.3,179.8,352.8,179.7,352.3z"/>
		<path d="M278.7,462.8c-0.4-0.5-0.8-1-1.2-1.5c2.5-0.1,4.9-0.3,7.4-0.4l-0.1-0.1c-1.2,2-2.4,4-3.8,6.2
			C280.2,465.5,279.5,464.2,278.7,462.8z"/>
		<path d="M245.9,474.8c-1.5,2.1,4.6,6-2.1,7.4C245.1,479.5,240.7,476.1,245.9,474.8z"/>
		<path d="M373.8,465.1c-2.1,3.4-3.6,5.9-5.3,8.6C367,470,368.3,467.5,373.8,465.1z"/>
		<path d="M262.3,480.8c-2.2-0.4-4.5-0.8-7.4-1.3c3.4-6,5.3-0.6,7.6-0.6C262.4,479.5,262.4,480.1,262.3,480.8z"/>
		<path d="M95.5,426.6c3.7,0.1,5.4,2.5,3.2,6.7C97.7,431.1,96.6,428.9,95.5,426.6z"/>
		<path d="M341.4,529c2-0.3,4-0.5,6.4-0.8C345.8,533,345.8,533,341.4,529z"/>
		<path class="st1" d="M483.9,318.6c-0.2-1.1-0.7-2.3-0.5-3.3c0.9-5.1,2.1-10.1,3-15.2c0.5-3,0.6-6.1,0.9-9.2
			c-4.3,0-7.9-0.5-11.2,0.2c-1.6,0.4-2.7,3.1-4,4.7c-5.6,1.5-11.2,0-16.2-2.8c-4.6-2.6-9.5-5.5-10-11.7c-1.7,1.9-3.1,3.7-4.7,5.2
			c-2.6,2.5-2,5.4,1.1,7.3c2.4,1.4,4.1,3.8,6.3,5.6c2.2,1.9,4.7,3.5,7,5.3c3.8,2.9,8.1,5.3,8.4,10.9c0.1,1.1,0.7,2.3,1.2,3.4
			c2.4,4.9,1.8,9.3-2,13.9c-2.8-2.5-5.5-4.6-8.1-7.5c-5.3-5.8-3.4-13.6-7.7-19.3c-2.9-3.8-5.4-8-8.8-13.1c-2.9,2.7-5.6,5.2-8.8,8.1
			c-1-1.5-2.1-3.2-3.2-4.9c-1.1-1.8-0.1-4.9-3.4-5.4c-0.2,0-0.4-0.5-0.3-0.8c0.8-5.3,1.6-10.5,2.6-15.7c0.5-2.5,2.2-2.5,4.6-2
			c3.1,0.7,6.4,0.5,9.6,0.8c1.5,0.1,2.9,0.6,4.3,1c3-1.4,6.3-4,9.6-4.2c10-0.4,20.5-1.8,28,7.5c0.5,0.6,1.5,1.2,2.3,1.3
			c5.8,0.3,6,4.6,6.4,8.8c0.7,7.2-0.6,14.2-2.8,21.1c-1,3.2-1.2,6.6-1.8,10C485,318.5,484.4,318.6,483.9,318.6z"/>
		<path class="st1" d="M408.3,336.9c2.7,7,5.3,13.7,7.9,20.5c4-2.1,3.6-4.8,2.2-8.1c-1.4-3.5-2.1-7.2-3.4-11.6
			c9.1,0.9,17.5-0.6,22.3,7.9c1.2,2,2.3,4.1,3.4,6.2c1.1,2.3,2.2,4.6,3.2,7c2.2-1,3.6-1.7,5-2.3c0.3,0.5,0.6,1.1,1,1.6
			c-3.2,1.8-6.2,3.9-9.6,5.2c-6,2.3-12.2,4.6-18.5,6.1c-8.9,2.1-14-2.8-16.2-11.5c-1.9-7.3,1.4-13.5,1.3-20.2
			C407,337.5,407.7,337.2,408.3,336.9z"/>
		<path class="st1" d="M441.2,322.6c-1.4-3.5-2.8-7.1-4.1-10.7c-1-2.8-2.1-5.6-2.6-8.5c-0.5-2.8,0.9-3.6,3.4-2.2
			c4.5,2.5,5.8,6.1,4.2,11c-0.3,0.9,0.5,2.1,0.6,3.1c0.1,2.3,0,4.6,0,7C442.2,322.5,441.7,322.6,441.2,322.6z"/>
		<path class="st1" d="M269,125.9c-1,1.4-1.5,2.1-2.1,2.9c2.3,1.1,4.4,2.5,6.1-0.8c0.2-0.3,1.5-0.5,1.6-0.3c0.7,1.2,1.1,2.6,1.6,3.7
			c3.8,3.2,7.5,6.4,11.3,9.7c-0.1,0.3-0.1,0.7-0.2,1c-1.2-0.1-2.6,0.1-3.7-0.5c-2.8-1.4-5.5-3.1-8.1-4.8c-3.1-2.1-6.2-4.1-9-6.6
			C264.5,128.5,265.3,126.9,269,125.9z"/>
		<path class="st1" d="M182.7,559.3c-6.2,0-5.1-5.1-6.1-7.7c-0.9-2.5,0.4-5.9,1.1-8.8c0.2-0.9,1.8-1.4,2.8-2.2
			c0.6,1.6,1.9,3.2,1.7,4.7C181.8,549.8,179.7,554.2,182.7,559.3z"/>
		<path class="st1" d="M467,338.4c-1.5,1.2-2.7,2.4-4.1,3.3c-0.2,0.1-2-1.3-1.9-1.6c0.6-1.8,1.5-3.6,2.6-6
			C465.1,335.9,465.9,337,467,338.4z"/>
		<path class="st1" d="M331.1,195.6c-5.7-0.9-4.9-4.2-4.9-7.1c0.4-0.2,0.8-0.4,1.2-0.6C328.5,190.2,329.5,192.5,331.1,195.6z"/>
		<path class="st1" d="M261.9,109.2c-4.3,2.2-7.1,1-9.3-2.8C255.9,107.3,258.9,108.3,261.9,109.2z"/>
		<path class="st1" d="M152.2,447.1c0.7-0.3,1.5-0.6,2.2-1c2.3-1.4,4.5-3.2,6.9-4.4c2.4-1.2,5-2,3-5.5c-0.2-0.4-0.6-0.9-0.4-1.2
			c1.6-4.2,3.3-8.3,5.4-12c-0.1-2.5-0.3-5-0.4-7.5c0.6-0.1,1.2-0.2,1.8-0.3c0.7,3.7,1.5,7.4,2.2,11c-0.3,0-0.7,0.1-1,0.1
			c1.3,1.1,2.6,2.2,4.1,3.4c0.6-0.8,1.3-2,2.1-3.2c1.4,3.5-1.3,12-4.1,14.1c-1,0.8-1.5,2.2-2.3,3.4c-1,1.6-2.1,3.1-3.1,4.7
			c-1-0.7-1.9-1.8-3-1.9c-1.8-0.1-3.7,0.2-5.4,0.8c-2,0.7-3.8,1.9-5.6,2.9c-0.2-0.4-0.3-0.7-0.5-1.1c-0.8,2.1-1.6,4.1-2.2,5.7
			c-4.3-1.2-7.8-2.2-11.6-3.2c2.5-2.7,6.2,3.1,7.5-2.2c-0.4-1.1-0.9-2.3-1.4-3.8c-3.2,1.6-6.5,3.3-9.7,4.9c-0.2-0.4-0.5-0.9-0.7-1.3
			c4.1-2.3,8.2-4.8,12.4-6.9c0.9-0.5,2.6-0.3,3.5,0.3C152.6,443.1,152.2,444.9,152.2,447.1z"/>
		<path class="st1" d="M122.6,392.4c2.4-2.6,4.4-4.8,7-7.7c1.4,4.6,2.4,8,3.6,12.2c-1.9-0.5-2.9-0.8-4.3-1.2c0.3,1,0.5,1.7,0.9,2.8
			c-1.4,0-2.7,0-4.4,0c0.5-0.8,1-1.5,1.6-2.4C125.7,395,124.5,394,122.6,392.4z"/>
		<path class="st1" d="M141.9,435.5c0.8-3.9,1.4-7.1,1.8-9.5c3.9-2.2,7.5-4.2,11-6.2c0.4,0.5,0.7,1.1,1.1,1.6
			c-3.6,2.7-7.2,5.4-10.8,8.1c0.2,0.3,0.4,0.6,0.6,1c1.7,0.2,3.5,0.3,6.4,0.6C148.3,432.7,145.7,433.9,141.9,435.5z"/>
		<path class="st1" d="M126,439.4c1.9-1.1,4-2.3,6-3.4c-0.1-0.3-0.3-0.7-0.5-1c-1.2,0-2.5,0-4.6,0c3.2-2.2,5.8-4.1,8.9-6.2
			c-0.1,0.9-0.1,1.5-0.1,2.5c1.8-0.5,3.4-1,5.1-1.4c0.1,0.2,0.2,0.5,0.3,0.7c-1.7,0.9-3.4,1.7-5.1,2.7c-1,0.7-2.1,1.6-2.7,2.6
			C131.3,439.7,130.7,440.1,126,439.4z"/>
		<path class="st1" d="M112,439.5c0.4-0.2,0.8-0.3,1.2-0.5c-1.3-2.9,1.3-4.3,3.3-6.4c0.3,1.4,0.6,2.7,1,4.4c2-0.6,4.2-1.3,6.5-1.9
			c0.1,0.3,0.2,0.5,0.3,0.8c-1.4,1.2-2.8,2.4-4.8,4.1C117.6,439.8,114.8,439.6,112,439.5C111.9,439.4,112,439.5,112,439.5z"/>
		<path class="st1" d="M130.9,457.4c-2.7-2.1-5.3-4.2-8-6.3c0.2-0.5,0.4-1.1,0.6-1.6c4.5,4,9.4,3.8,14.4,1.1c0,0.5,0.1,1,0.1,1.4
			c-2.4,1.8-4.9,3.5-7.3,5.3C130.7,457.2,130.9,457.4,130.9,457.4z"/>
		<path class="st1" d="M272.9,459.9c-5,1.9-9.1,3.4-13.2,4.9C265.5,457.6,267.1,457,272.9,459.9z"/>
		<path class="st1" d="M284.9,460.9c-2.5,0.1-4.9,0.3-7.4,0.4c-0.3-2.5-5.5-3.1-1.9-7.4c1.2,1.1,2.4,2.2,3.7,3.2
			c0.7,0.5,1.9,1.4,2.5,1.1C284.9,456.9,284.8,459,284.9,460.9z"/>
		<path class="st1" d="M184.9,430.6c-1-1.3-1.8-2.5-2.7-3.8c1.2-1.5,2.4-2.9,4.3-5.2C186.4,425.3,190.3,428.4,184.9,430.6z"/>
		<path class="st1" d="M320.7,461.7c0,0-1,0-2.1,0c0.2-3.1,0.4-6.1,0.7-10.1c1.3,1.2,2.5,2.4,3.4,3.2
			C322.1,457.1,321.5,459,320.7,461.7z"/>
		<path class="st1" d="M138.1,426.3c-3.6,1.5-6.7,2.9-9.8,4.2C130.8,425.3,133.8,424.1,138.1,426.3z"/>
		<path class="st1" d="M251.6,450.3c-2.9,0.6-4.9,1-7.8,1.6c1.4-3.1,2.1-4.9,3-6.8C248.3,446.8,249.5,448.1,251.6,450.3z"/>
		<path class="st1" d="M256.5,462.3c-1.4-0.1-2.7-0.3-4-0.4c-1-0.1-2.1-0.1-3.1-0.2c0.9-1.4,1.4-3.2,2.7-4c0.6-0.4,2.6,0.5,3.6,1.4
			C256.3,459.7,256.2,461.1,256.5,462.3z"/>
		<path class="st1" d="M153,396.9c3.1-2.1,9.3-0.2,11.9,3.9C160.9,399.5,157,398.3,153,396.9z"/>
		<path class="st1" d="M214.1,436.8c1.7-0.2,3.5-0.5,5.4-0.7c2.1,5.4-5.2,1.9-4.2,5.9c-0.4-0.1-0.9-0.3-1.3-0.5
			C214,439.9,214.1,438.3,214.1,436.8L214.1,436.8z"/>
		<path class="st1" d="M241.4,453.7c1.7-0.2,3.8-0.9,4.1-0.4c1,1.4,1.2,3.2,1.7,4.9c-0.5,0.3-1,0.5-1.5,0.7
			C244.6,457.4,243.3,455.9,241.4,453.7z"/>
	</g>
</g>
</svg>
