<?xml version="1.0" encoding="utf-8"?>
<!-- Generator: Adobe Illustrator 25.0.0, SVG Export Plug-In . SVG Version: 6.00 Build 0)  -->
<svg version="1.1" id="Layer_1" xmlns="http://www.w3.org/2000/svg" xmlns:xlink="http://www.w3.org/1999/xlink" x="0px" y="0px"
	 viewBox="0 0 411 402" style="enable-background:new 0 0 411 402;" xml:space="preserve">
<style type="text/css">
	.st0{fill:#FFFFFF;}
	.st1{fill:none;stroke:#D5D5D5;stroke-width:4;}
	.st2{fill:none;stroke:#FFFFFF;stroke-width:6;}
	.st3{fill:#B2DDCC;}
	.st4{fill:#F9D5A5;}
	.st5{fill:#1FC41F;}
	.st6{fill:#E9D5F5;}
</style>
<g id="illustration" transform="translate(-1100 -312)">
	<g transform="matrix(1, 0, 0, 1, 1100, 312)">
		<path id="Rectangle_6-2" class="st0" d="M60,18h293c17.1,0,31,13.9,31,31v286c0,17.1-13.9,31-31,31H60c-17.1,0-31-13.9-31-31V49
			C29,31.9,42.9,18,60,18z"/>
	</g>
	<g id="Component_4_1" transform="translate(1100 395)">
		<g id="Group_6" transform="translate(-1119 -230)">
			<g id="Ellipse_1" transform="translate(1119 386)">
				<circle class="st0" cx="29" cy="29" r="29"/>
				<circle class="st1" cx="29" cy="29" r="27"/>
			</g>
			<path id="Path_1" class="st2" d="M1137.2,414.8l7.3,7.3l9.6-9.6l4.7-4.7"/>
			<path id="Rectangle_7" class="st3" d="M1227.5,393h222c3.6,0,6.5,2.9,6.5,6.5l0,0c0,3.6-2.9,6.5-6.5,6.5h-222
				c-3.6,0-6.5-2.9-6.5-6.5l0,0C1221,395.9,1223.9,393,1227.5,393z"/>
			<path id="Rectangle_8" class="st3" d="M1227.5,417h43c3.6,0,6.5,2.9,6.5,6.5l0,0c0,3.6-2.9,6.5-6.5,6.5h-43
				c-3.6,0-6.5-2.9-6.5-6.5l0,0C1221,419.9,1223.9,417,1227.5,417z"/>
			<path id="Rectangle_9" class="st3" d="M1449.5,417L1449.5,417c3.6,0,6.5,2.9,6.5,6.5l0,0c0,3.6-2.9,6.5-6.5,6.5l0,0
				c-3.6,0-6.5-2.9-6.5-6.5l0,0C1443,419.9,1445.9,417,1449.5,417z"/>
			<path id="Rectangle_10" class="st3" d="M1431.5,417L1431.5,417c3.6,0,6.5,2.9,6.5,6.5l0,0c0,3.6-2.9,6.5-6.5,6.5l0,0
				c-3.6,0-6.5-2.9-6.5-6.5l0,0C1425,419.9,1427.9,417,1431.5,417z"/>
		</g>
		<g id="Group_5" transform="translate(-1119 -308)">
			<g id="Ellipse_1-2" transform="translate(1119 386)">
				<circle class="st0" cx="29" cy="29" r="29"/>
				<circle class="st1" cx="29" cy="29" r="27"/>
			</g>
			<path id="Path_1-2" class="st2" d="M1137.2,414.8l7.3,7.3l9.6-9.6l4.7-4.7"/>
			<path id="Rectangle_7-2" class="st4" d="M1227.5,393h222c3.6,0,6.5,2.9,6.5,6.5l0,0c0,3.6-2.9,6.5-6.5,6.5h-222
				c-3.6,0-6.5-2.9-6.5-6.5l0,0C1221,395.9,1223.9,393,1227.5,393z"/>
			<path id="Rectangle_8-2" class="st4" d="M1227.5,417h43c3.6,0,6.5,2.9,6.5,6.5l0,0c0,3.6-2.9,6.5-6.5,6.5h-43
				c-3.6,0-6.5-2.9-6.5-6.5l0,0C1221,419.9,1223.9,417,1227.5,417z"/>
			<path id="Rectangle_9-2" class="st4" d="M1449.5,417L1449.5,417c3.6,0,6.5,2.9,6.5,6.5l0,0c0,3.6-2.9,6.5-6.5,6.5l0,0
				c-3.6,0-6.5-2.9-6.5-6.5l0,0C1443,419.9,1445.9,417,1449.5,417z"/>
			<path id="Rectangle_10-2" class="st4" d="M1431.5,417L1431.5,417c3.6,0,6.5,2.9,6.5,6.5l0,0c0,3.6-2.9,6.5-6.5,6.5l0,0
				c-3.6,0-6.5-2.9-6.5-6.5l0,0C1425,419.9,1427.9,417,1431.5,417z"/>
		</g>
		<g id="Group_4" transform="translate(-1119 -386)">
			<circle id="Ellipse_1-3" class="st5" cx="1148" cy="415" r="29"/>
			<path id="Path_1-3" class="st2" d="M1137.2,414.8l7.3,7.3l9.6-9.6l4.7-4.7"/>
			<path id="Rectangle_7-3" class="st6" d="M1227.5,393h222c3.6,0,6.5,2.9,6.5,6.5l0,0c0,3.6-2.9,6.5-6.5,6.5h-222
				c-3.6,0-6.5-2.9-6.5-6.5l0,0C1221,395.9,1223.9,393,1227.5,393z"/>
			<path id="Rectangle_8-3" class="st6" d="M1227.5,417h43c3.6,0,6.5,2.9,6.5,6.5l0,0c0,3.6-2.9,6.5-6.5,6.5h-43
				c-3.6,0-6.5-2.9-6.5-6.5l0,0C1221,419.9,1223.9,417,1227.5,417z"/>
			<path id="Rectangle_9-3" class="st6" d="M1449.5,417L1449.5,417c3.6,0,6.5,2.9,6.5,6.5l0,0c0,3.6-2.9,6.5-6.5,6.5l0,0
				c-3.6,0-6.5-2.9-6.5-6.5l0,0C1443,419.9,1445.9,417,1449.5,417z"/>
			<path id="Rectangle_10-3" class="st6" d="M1431.5,417L1431.5,417c3.6,0,6.5,2.9,6.5,6.5l0,0c0,3.6-2.9,6.5-6.5,6.5l0,0
				c-3.6,0-6.5-2.9-6.5-6.5l0,0C1425,419.9,1427.9,417,1431.5,417z"/>
		</g>
	</g>
</g>
</svg>
